G04 #@! TF.GenerationSoftware,KiCad,Pcbnew,(5.1.4)-1*
G04 #@! TF.CreationDate,2019-09-19T01:50:37+03:00*
G04 #@! TF.ProjectId,Project_2_RPI_HAT,50726f6a-6563-4745-9f32-5f5250495f48,v1*
G04 #@! TF.SameCoordinates,Original*
G04 #@! TF.FileFunction,Paste,Top*
G04 #@! TF.FilePolarity,Positive*
%FSLAX46Y46*%
G04 Gerber Fmt 4.6, Leading zero omitted, Abs format (unit mm)*
G04 Created by KiCad (PCBNEW (5.1.4)-1) date 2019-09-19 01:50:37*
%MOMM*%
%LPD*%
G04 APERTURE LIST*
%ADD10C,0.100000*%
%ADD11C,0.975000*%
G04 APERTURE END LIST*
D10*
G36*
X63566742Y-72300774D02*
G01*
X63590403Y-72304284D01*
X63613607Y-72310096D01*
X63636129Y-72318154D01*
X63657753Y-72328382D01*
X63678270Y-72340679D01*
X63697483Y-72354929D01*
X63715207Y-72370993D01*
X63731271Y-72388717D01*
X63745521Y-72407930D01*
X63757818Y-72428447D01*
X63768046Y-72450071D01*
X63776104Y-72472593D01*
X63781916Y-72495797D01*
X63785426Y-72519458D01*
X63786600Y-72543350D01*
X63786600Y-73455850D01*
X63785426Y-73479742D01*
X63781916Y-73503403D01*
X63776104Y-73526607D01*
X63768046Y-73549129D01*
X63757818Y-73570753D01*
X63745521Y-73591270D01*
X63731271Y-73610483D01*
X63715207Y-73628207D01*
X63697483Y-73644271D01*
X63678270Y-73658521D01*
X63657753Y-73670818D01*
X63636129Y-73681046D01*
X63613607Y-73689104D01*
X63590403Y-73694916D01*
X63566742Y-73698426D01*
X63542850Y-73699600D01*
X63055350Y-73699600D01*
X63031458Y-73698426D01*
X63007797Y-73694916D01*
X62984593Y-73689104D01*
X62962071Y-73681046D01*
X62940447Y-73670818D01*
X62919930Y-73658521D01*
X62900717Y-73644271D01*
X62882993Y-73628207D01*
X62866929Y-73610483D01*
X62852679Y-73591270D01*
X62840382Y-73570753D01*
X62830154Y-73549129D01*
X62822096Y-73526607D01*
X62816284Y-73503403D01*
X62812774Y-73479742D01*
X62811600Y-73455850D01*
X62811600Y-72543350D01*
X62812774Y-72519458D01*
X62816284Y-72495797D01*
X62822096Y-72472593D01*
X62830154Y-72450071D01*
X62840382Y-72428447D01*
X62852679Y-72407930D01*
X62866929Y-72388717D01*
X62882993Y-72370993D01*
X62900717Y-72354929D01*
X62919930Y-72340679D01*
X62940447Y-72328382D01*
X62962071Y-72318154D01*
X62984593Y-72310096D01*
X63007797Y-72304284D01*
X63031458Y-72300774D01*
X63055350Y-72299600D01*
X63542850Y-72299600D01*
X63566742Y-72300774D01*
X63566742Y-72300774D01*
G37*
D11*
X63299100Y-72999600D03*
D10*
G36*
X65441742Y-72300774D02*
G01*
X65465403Y-72304284D01*
X65488607Y-72310096D01*
X65511129Y-72318154D01*
X65532753Y-72328382D01*
X65553270Y-72340679D01*
X65572483Y-72354929D01*
X65590207Y-72370993D01*
X65606271Y-72388717D01*
X65620521Y-72407930D01*
X65632818Y-72428447D01*
X65643046Y-72450071D01*
X65651104Y-72472593D01*
X65656916Y-72495797D01*
X65660426Y-72519458D01*
X65661600Y-72543350D01*
X65661600Y-73455850D01*
X65660426Y-73479742D01*
X65656916Y-73503403D01*
X65651104Y-73526607D01*
X65643046Y-73549129D01*
X65632818Y-73570753D01*
X65620521Y-73591270D01*
X65606271Y-73610483D01*
X65590207Y-73628207D01*
X65572483Y-73644271D01*
X65553270Y-73658521D01*
X65532753Y-73670818D01*
X65511129Y-73681046D01*
X65488607Y-73689104D01*
X65465403Y-73694916D01*
X65441742Y-73698426D01*
X65417850Y-73699600D01*
X64930350Y-73699600D01*
X64906458Y-73698426D01*
X64882797Y-73694916D01*
X64859593Y-73689104D01*
X64837071Y-73681046D01*
X64815447Y-73670818D01*
X64794930Y-73658521D01*
X64775717Y-73644271D01*
X64757993Y-73628207D01*
X64741929Y-73610483D01*
X64727679Y-73591270D01*
X64715382Y-73570753D01*
X64705154Y-73549129D01*
X64697096Y-73526607D01*
X64691284Y-73503403D01*
X64687774Y-73479742D01*
X64686600Y-73455850D01*
X64686600Y-72543350D01*
X64687774Y-72519458D01*
X64691284Y-72495797D01*
X64697096Y-72472593D01*
X64705154Y-72450071D01*
X64715382Y-72428447D01*
X64727679Y-72407930D01*
X64741929Y-72388717D01*
X64757993Y-72370993D01*
X64775717Y-72354929D01*
X64794930Y-72340679D01*
X64815447Y-72328382D01*
X64837071Y-72318154D01*
X64859593Y-72310096D01*
X64882797Y-72304284D01*
X64906458Y-72300774D01*
X64930350Y-72299600D01*
X65417850Y-72299600D01*
X65441742Y-72300774D01*
X65441742Y-72300774D01*
G37*
D11*
X65174100Y-72999600D03*
D10*
G36*
X65441742Y-68947974D02*
G01*
X65465403Y-68951484D01*
X65488607Y-68957296D01*
X65511129Y-68965354D01*
X65532753Y-68975582D01*
X65553270Y-68987879D01*
X65572483Y-69002129D01*
X65590207Y-69018193D01*
X65606271Y-69035917D01*
X65620521Y-69055130D01*
X65632818Y-69075647D01*
X65643046Y-69097271D01*
X65651104Y-69119793D01*
X65656916Y-69142997D01*
X65660426Y-69166658D01*
X65661600Y-69190550D01*
X65661600Y-70103050D01*
X65660426Y-70126942D01*
X65656916Y-70150603D01*
X65651104Y-70173807D01*
X65643046Y-70196329D01*
X65632818Y-70217953D01*
X65620521Y-70238470D01*
X65606271Y-70257683D01*
X65590207Y-70275407D01*
X65572483Y-70291471D01*
X65553270Y-70305721D01*
X65532753Y-70318018D01*
X65511129Y-70328246D01*
X65488607Y-70336304D01*
X65465403Y-70342116D01*
X65441742Y-70345626D01*
X65417850Y-70346800D01*
X64930350Y-70346800D01*
X64906458Y-70345626D01*
X64882797Y-70342116D01*
X64859593Y-70336304D01*
X64837071Y-70328246D01*
X64815447Y-70318018D01*
X64794930Y-70305721D01*
X64775717Y-70291471D01*
X64757993Y-70275407D01*
X64741929Y-70257683D01*
X64727679Y-70238470D01*
X64715382Y-70217953D01*
X64705154Y-70196329D01*
X64697096Y-70173807D01*
X64691284Y-70150603D01*
X64687774Y-70126942D01*
X64686600Y-70103050D01*
X64686600Y-69190550D01*
X64687774Y-69166658D01*
X64691284Y-69142997D01*
X64697096Y-69119793D01*
X64705154Y-69097271D01*
X64715382Y-69075647D01*
X64727679Y-69055130D01*
X64741929Y-69035917D01*
X64757993Y-69018193D01*
X64775717Y-69002129D01*
X64794930Y-68987879D01*
X64815447Y-68975582D01*
X64837071Y-68965354D01*
X64859593Y-68957296D01*
X64882797Y-68951484D01*
X64906458Y-68947974D01*
X64930350Y-68946800D01*
X65417850Y-68946800D01*
X65441742Y-68947974D01*
X65441742Y-68947974D01*
G37*
D11*
X65174100Y-69646800D03*
D10*
G36*
X63566742Y-68947974D02*
G01*
X63590403Y-68951484D01*
X63613607Y-68957296D01*
X63636129Y-68965354D01*
X63657753Y-68975582D01*
X63678270Y-68987879D01*
X63697483Y-69002129D01*
X63715207Y-69018193D01*
X63731271Y-69035917D01*
X63745521Y-69055130D01*
X63757818Y-69075647D01*
X63768046Y-69097271D01*
X63776104Y-69119793D01*
X63781916Y-69142997D01*
X63785426Y-69166658D01*
X63786600Y-69190550D01*
X63786600Y-70103050D01*
X63785426Y-70126942D01*
X63781916Y-70150603D01*
X63776104Y-70173807D01*
X63768046Y-70196329D01*
X63757818Y-70217953D01*
X63745521Y-70238470D01*
X63731271Y-70257683D01*
X63715207Y-70275407D01*
X63697483Y-70291471D01*
X63678270Y-70305721D01*
X63657753Y-70318018D01*
X63636129Y-70328246D01*
X63613607Y-70336304D01*
X63590403Y-70342116D01*
X63566742Y-70345626D01*
X63542850Y-70346800D01*
X63055350Y-70346800D01*
X63031458Y-70345626D01*
X63007797Y-70342116D01*
X62984593Y-70336304D01*
X62962071Y-70328246D01*
X62940447Y-70318018D01*
X62919930Y-70305721D01*
X62900717Y-70291471D01*
X62882993Y-70275407D01*
X62866929Y-70257683D01*
X62852679Y-70238470D01*
X62840382Y-70217953D01*
X62830154Y-70196329D01*
X62822096Y-70173807D01*
X62816284Y-70150603D01*
X62812774Y-70126942D01*
X62811600Y-70103050D01*
X62811600Y-69190550D01*
X62812774Y-69166658D01*
X62816284Y-69142997D01*
X62822096Y-69119793D01*
X62830154Y-69097271D01*
X62840382Y-69075647D01*
X62852679Y-69055130D01*
X62866929Y-69035917D01*
X62882993Y-69018193D01*
X62900717Y-69002129D01*
X62919930Y-68987879D01*
X62940447Y-68975582D01*
X62962071Y-68965354D01*
X62984593Y-68957296D01*
X63007797Y-68951484D01*
X63031458Y-68947974D01*
X63055350Y-68946800D01*
X63542850Y-68946800D01*
X63566742Y-68947974D01*
X63566742Y-68947974D01*
G37*
D11*
X63299100Y-69646800D03*
D10*
G36*
X56145342Y-68902974D02*
G01*
X56169003Y-68906484D01*
X56192207Y-68912296D01*
X56214729Y-68920354D01*
X56236353Y-68930582D01*
X56256870Y-68942879D01*
X56276083Y-68957129D01*
X56293807Y-68973193D01*
X56309871Y-68990917D01*
X56324121Y-69010130D01*
X56336418Y-69030647D01*
X56346646Y-69052271D01*
X56354704Y-69074793D01*
X56360516Y-69097997D01*
X56364026Y-69121658D01*
X56365200Y-69145550D01*
X56365200Y-70058050D01*
X56364026Y-70081942D01*
X56360516Y-70105603D01*
X56354704Y-70128807D01*
X56346646Y-70151329D01*
X56336418Y-70172953D01*
X56324121Y-70193470D01*
X56309871Y-70212683D01*
X56293807Y-70230407D01*
X56276083Y-70246471D01*
X56256870Y-70260721D01*
X56236353Y-70273018D01*
X56214729Y-70283246D01*
X56192207Y-70291304D01*
X56169003Y-70297116D01*
X56145342Y-70300626D01*
X56121450Y-70301800D01*
X55633950Y-70301800D01*
X55610058Y-70300626D01*
X55586397Y-70297116D01*
X55563193Y-70291304D01*
X55540671Y-70283246D01*
X55519047Y-70273018D01*
X55498530Y-70260721D01*
X55479317Y-70246471D01*
X55461593Y-70230407D01*
X55445529Y-70212683D01*
X55431279Y-70193470D01*
X55418982Y-70172953D01*
X55408754Y-70151329D01*
X55400696Y-70128807D01*
X55394884Y-70105603D01*
X55391374Y-70081942D01*
X55390200Y-70058050D01*
X55390200Y-69145550D01*
X55391374Y-69121658D01*
X55394884Y-69097997D01*
X55400696Y-69074793D01*
X55408754Y-69052271D01*
X55418982Y-69030647D01*
X55431279Y-69010130D01*
X55445529Y-68990917D01*
X55461593Y-68973193D01*
X55479317Y-68957129D01*
X55498530Y-68942879D01*
X55519047Y-68930582D01*
X55540671Y-68920354D01*
X55563193Y-68912296D01*
X55586397Y-68906484D01*
X55610058Y-68902974D01*
X55633950Y-68901800D01*
X56121450Y-68901800D01*
X56145342Y-68902974D01*
X56145342Y-68902974D01*
G37*
D11*
X55877700Y-69601800D03*
D10*
G36*
X54270342Y-68902974D02*
G01*
X54294003Y-68906484D01*
X54317207Y-68912296D01*
X54339729Y-68920354D01*
X54361353Y-68930582D01*
X54381870Y-68942879D01*
X54401083Y-68957129D01*
X54418807Y-68973193D01*
X54434871Y-68990917D01*
X54449121Y-69010130D01*
X54461418Y-69030647D01*
X54471646Y-69052271D01*
X54479704Y-69074793D01*
X54485516Y-69097997D01*
X54489026Y-69121658D01*
X54490200Y-69145550D01*
X54490200Y-70058050D01*
X54489026Y-70081942D01*
X54485516Y-70105603D01*
X54479704Y-70128807D01*
X54471646Y-70151329D01*
X54461418Y-70172953D01*
X54449121Y-70193470D01*
X54434871Y-70212683D01*
X54418807Y-70230407D01*
X54401083Y-70246471D01*
X54381870Y-70260721D01*
X54361353Y-70273018D01*
X54339729Y-70283246D01*
X54317207Y-70291304D01*
X54294003Y-70297116D01*
X54270342Y-70300626D01*
X54246450Y-70301800D01*
X53758950Y-70301800D01*
X53735058Y-70300626D01*
X53711397Y-70297116D01*
X53688193Y-70291304D01*
X53665671Y-70283246D01*
X53644047Y-70273018D01*
X53623530Y-70260721D01*
X53604317Y-70246471D01*
X53586593Y-70230407D01*
X53570529Y-70212683D01*
X53556279Y-70193470D01*
X53543982Y-70172953D01*
X53533754Y-70151329D01*
X53525696Y-70128807D01*
X53519884Y-70105603D01*
X53516374Y-70081942D01*
X53515200Y-70058050D01*
X53515200Y-69145550D01*
X53516374Y-69121658D01*
X53519884Y-69097997D01*
X53525696Y-69074793D01*
X53533754Y-69052271D01*
X53543982Y-69030647D01*
X53556279Y-69010130D01*
X53570529Y-68990917D01*
X53586593Y-68973193D01*
X53604317Y-68957129D01*
X53623530Y-68942879D01*
X53644047Y-68930582D01*
X53665671Y-68920354D01*
X53688193Y-68912296D01*
X53711397Y-68906484D01*
X53735058Y-68902974D01*
X53758950Y-68901800D01*
X54246450Y-68901800D01*
X54270342Y-68902974D01*
X54270342Y-68902974D01*
G37*
D11*
X54002700Y-69601800D03*
D10*
G36*
X55413342Y-72255774D02*
G01*
X55437003Y-72259284D01*
X55460207Y-72265096D01*
X55482729Y-72273154D01*
X55504353Y-72283382D01*
X55524870Y-72295679D01*
X55544083Y-72309929D01*
X55561807Y-72325993D01*
X55577871Y-72343717D01*
X55592121Y-72362930D01*
X55604418Y-72383447D01*
X55614646Y-72405071D01*
X55622704Y-72427593D01*
X55628516Y-72450797D01*
X55632026Y-72474458D01*
X55633200Y-72498350D01*
X55633200Y-73410850D01*
X55632026Y-73434742D01*
X55628516Y-73458403D01*
X55622704Y-73481607D01*
X55614646Y-73504129D01*
X55604418Y-73525753D01*
X55592121Y-73546270D01*
X55577871Y-73565483D01*
X55561807Y-73583207D01*
X55544083Y-73599271D01*
X55524870Y-73613521D01*
X55504353Y-73625818D01*
X55482729Y-73636046D01*
X55460207Y-73644104D01*
X55437003Y-73649916D01*
X55413342Y-73653426D01*
X55389450Y-73654600D01*
X54901950Y-73654600D01*
X54878058Y-73653426D01*
X54854397Y-73649916D01*
X54831193Y-73644104D01*
X54808671Y-73636046D01*
X54787047Y-73625818D01*
X54766530Y-73613521D01*
X54747317Y-73599271D01*
X54729593Y-73583207D01*
X54713529Y-73565483D01*
X54699279Y-73546270D01*
X54686982Y-73525753D01*
X54676754Y-73504129D01*
X54668696Y-73481607D01*
X54662884Y-73458403D01*
X54659374Y-73434742D01*
X54658200Y-73410850D01*
X54658200Y-72498350D01*
X54659374Y-72474458D01*
X54662884Y-72450797D01*
X54668696Y-72427593D01*
X54676754Y-72405071D01*
X54686982Y-72383447D01*
X54699279Y-72362930D01*
X54713529Y-72343717D01*
X54729593Y-72325993D01*
X54747317Y-72309929D01*
X54766530Y-72295679D01*
X54787047Y-72283382D01*
X54808671Y-72273154D01*
X54831193Y-72265096D01*
X54854397Y-72259284D01*
X54878058Y-72255774D01*
X54901950Y-72254600D01*
X55389450Y-72254600D01*
X55413342Y-72255774D01*
X55413342Y-72255774D01*
G37*
D11*
X55145700Y-72954600D03*
D10*
G36*
X57288342Y-72255774D02*
G01*
X57312003Y-72259284D01*
X57335207Y-72265096D01*
X57357729Y-72273154D01*
X57379353Y-72283382D01*
X57399870Y-72295679D01*
X57419083Y-72309929D01*
X57436807Y-72325993D01*
X57452871Y-72343717D01*
X57467121Y-72362930D01*
X57479418Y-72383447D01*
X57489646Y-72405071D01*
X57497704Y-72427593D01*
X57503516Y-72450797D01*
X57507026Y-72474458D01*
X57508200Y-72498350D01*
X57508200Y-73410850D01*
X57507026Y-73434742D01*
X57503516Y-73458403D01*
X57497704Y-73481607D01*
X57489646Y-73504129D01*
X57479418Y-73525753D01*
X57467121Y-73546270D01*
X57452871Y-73565483D01*
X57436807Y-73583207D01*
X57419083Y-73599271D01*
X57399870Y-73613521D01*
X57379353Y-73625818D01*
X57357729Y-73636046D01*
X57335207Y-73644104D01*
X57312003Y-73649916D01*
X57288342Y-73653426D01*
X57264450Y-73654600D01*
X56776950Y-73654600D01*
X56753058Y-73653426D01*
X56729397Y-73649916D01*
X56706193Y-73644104D01*
X56683671Y-73636046D01*
X56662047Y-73625818D01*
X56641530Y-73613521D01*
X56622317Y-73599271D01*
X56604593Y-73583207D01*
X56588529Y-73565483D01*
X56574279Y-73546270D01*
X56561982Y-73525753D01*
X56551754Y-73504129D01*
X56543696Y-73481607D01*
X56537884Y-73458403D01*
X56534374Y-73434742D01*
X56533200Y-73410850D01*
X56533200Y-72498350D01*
X56534374Y-72474458D01*
X56537884Y-72450797D01*
X56543696Y-72427593D01*
X56551754Y-72405071D01*
X56561982Y-72383447D01*
X56574279Y-72362930D01*
X56588529Y-72343717D01*
X56604593Y-72325993D01*
X56622317Y-72309929D01*
X56641530Y-72295679D01*
X56662047Y-72283382D01*
X56683671Y-72273154D01*
X56706193Y-72265096D01*
X56729397Y-72259284D01*
X56753058Y-72255774D01*
X56776950Y-72254600D01*
X57264450Y-72254600D01*
X57288342Y-72255774D01*
X57288342Y-72255774D01*
G37*
D11*
X57020700Y-72954600D03*
D10*
G36*
X61326942Y-72255774D02*
G01*
X61350603Y-72259284D01*
X61373807Y-72265096D01*
X61396329Y-72273154D01*
X61417953Y-72283382D01*
X61438470Y-72295679D01*
X61457683Y-72309929D01*
X61475407Y-72325993D01*
X61491471Y-72343717D01*
X61505721Y-72362930D01*
X61518018Y-72383447D01*
X61528246Y-72405071D01*
X61536304Y-72427593D01*
X61542116Y-72450797D01*
X61545626Y-72474458D01*
X61546800Y-72498350D01*
X61546800Y-73410850D01*
X61545626Y-73434742D01*
X61542116Y-73458403D01*
X61536304Y-73481607D01*
X61528246Y-73504129D01*
X61518018Y-73525753D01*
X61505721Y-73546270D01*
X61491471Y-73565483D01*
X61475407Y-73583207D01*
X61457683Y-73599271D01*
X61438470Y-73613521D01*
X61417953Y-73625818D01*
X61396329Y-73636046D01*
X61373807Y-73644104D01*
X61350603Y-73649916D01*
X61326942Y-73653426D01*
X61303050Y-73654600D01*
X60815550Y-73654600D01*
X60791658Y-73653426D01*
X60767997Y-73649916D01*
X60744793Y-73644104D01*
X60722271Y-73636046D01*
X60700647Y-73625818D01*
X60680130Y-73613521D01*
X60660917Y-73599271D01*
X60643193Y-73583207D01*
X60627129Y-73565483D01*
X60612879Y-73546270D01*
X60600582Y-73525753D01*
X60590354Y-73504129D01*
X60582296Y-73481607D01*
X60576484Y-73458403D01*
X60572974Y-73434742D01*
X60571800Y-73410850D01*
X60571800Y-72498350D01*
X60572974Y-72474458D01*
X60576484Y-72450797D01*
X60582296Y-72427593D01*
X60590354Y-72405071D01*
X60600582Y-72383447D01*
X60612879Y-72362930D01*
X60627129Y-72343717D01*
X60643193Y-72325993D01*
X60660917Y-72309929D01*
X60680130Y-72295679D01*
X60700647Y-72283382D01*
X60722271Y-72273154D01*
X60744793Y-72265096D01*
X60767997Y-72259284D01*
X60791658Y-72255774D01*
X60815550Y-72254600D01*
X61303050Y-72254600D01*
X61326942Y-72255774D01*
X61326942Y-72255774D01*
G37*
D11*
X61059300Y-72954600D03*
D10*
G36*
X59451942Y-72255774D02*
G01*
X59475603Y-72259284D01*
X59498807Y-72265096D01*
X59521329Y-72273154D01*
X59542953Y-72283382D01*
X59563470Y-72295679D01*
X59582683Y-72309929D01*
X59600407Y-72325993D01*
X59616471Y-72343717D01*
X59630721Y-72362930D01*
X59643018Y-72383447D01*
X59653246Y-72405071D01*
X59661304Y-72427593D01*
X59667116Y-72450797D01*
X59670626Y-72474458D01*
X59671800Y-72498350D01*
X59671800Y-73410850D01*
X59670626Y-73434742D01*
X59667116Y-73458403D01*
X59661304Y-73481607D01*
X59653246Y-73504129D01*
X59643018Y-73525753D01*
X59630721Y-73546270D01*
X59616471Y-73565483D01*
X59600407Y-73583207D01*
X59582683Y-73599271D01*
X59563470Y-73613521D01*
X59542953Y-73625818D01*
X59521329Y-73636046D01*
X59498807Y-73644104D01*
X59475603Y-73649916D01*
X59451942Y-73653426D01*
X59428050Y-73654600D01*
X58940550Y-73654600D01*
X58916658Y-73653426D01*
X58892997Y-73649916D01*
X58869793Y-73644104D01*
X58847271Y-73636046D01*
X58825647Y-73625818D01*
X58805130Y-73613521D01*
X58785917Y-73599271D01*
X58768193Y-73583207D01*
X58752129Y-73565483D01*
X58737879Y-73546270D01*
X58725582Y-73525753D01*
X58715354Y-73504129D01*
X58707296Y-73481607D01*
X58701484Y-73458403D01*
X58697974Y-73434742D01*
X58696800Y-73410850D01*
X58696800Y-72498350D01*
X58697974Y-72474458D01*
X58701484Y-72450797D01*
X58707296Y-72427593D01*
X58715354Y-72405071D01*
X58725582Y-72383447D01*
X58737879Y-72362930D01*
X58752129Y-72343717D01*
X58768193Y-72325993D01*
X58785917Y-72309929D01*
X58805130Y-72295679D01*
X58825647Y-72283382D01*
X58847271Y-72273154D01*
X58869793Y-72265096D01*
X58892997Y-72259284D01*
X58916658Y-72255774D01*
X58940550Y-72254600D01*
X59428050Y-72254600D01*
X59451942Y-72255774D01*
X59451942Y-72255774D01*
G37*
D11*
X59184300Y-72954600D03*
D10*
G36*
X59451942Y-68902974D02*
G01*
X59475603Y-68906484D01*
X59498807Y-68912296D01*
X59521329Y-68920354D01*
X59542953Y-68930582D01*
X59563470Y-68942879D01*
X59582683Y-68957129D01*
X59600407Y-68973193D01*
X59616471Y-68990917D01*
X59630721Y-69010130D01*
X59643018Y-69030647D01*
X59653246Y-69052271D01*
X59661304Y-69074793D01*
X59667116Y-69097997D01*
X59670626Y-69121658D01*
X59671800Y-69145550D01*
X59671800Y-70058050D01*
X59670626Y-70081942D01*
X59667116Y-70105603D01*
X59661304Y-70128807D01*
X59653246Y-70151329D01*
X59643018Y-70172953D01*
X59630721Y-70193470D01*
X59616471Y-70212683D01*
X59600407Y-70230407D01*
X59582683Y-70246471D01*
X59563470Y-70260721D01*
X59542953Y-70273018D01*
X59521329Y-70283246D01*
X59498807Y-70291304D01*
X59475603Y-70297116D01*
X59451942Y-70300626D01*
X59428050Y-70301800D01*
X58940550Y-70301800D01*
X58916658Y-70300626D01*
X58892997Y-70297116D01*
X58869793Y-70291304D01*
X58847271Y-70283246D01*
X58825647Y-70273018D01*
X58805130Y-70260721D01*
X58785917Y-70246471D01*
X58768193Y-70230407D01*
X58752129Y-70212683D01*
X58737879Y-70193470D01*
X58725582Y-70172953D01*
X58715354Y-70151329D01*
X58707296Y-70128807D01*
X58701484Y-70105603D01*
X58697974Y-70081942D01*
X58696800Y-70058050D01*
X58696800Y-69145550D01*
X58697974Y-69121658D01*
X58701484Y-69097997D01*
X58707296Y-69074793D01*
X58715354Y-69052271D01*
X58725582Y-69030647D01*
X58737879Y-69010130D01*
X58752129Y-68990917D01*
X58768193Y-68973193D01*
X58785917Y-68957129D01*
X58805130Y-68942879D01*
X58825647Y-68930582D01*
X58847271Y-68920354D01*
X58869793Y-68912296D01*
X58892997Y-68906484D01*
X58916658Y-68902974D01*
X58940550Y-68901800D01*
X59428050Y-68901800D01*
X59451942Y-68902974D01*
X59451942Y-68902974D01*
G37*
D11*
X59184300Y-69601800D03*
D10*
G36*
X61326942Y-68902974D02*
G01*
X61350603Y-68906484D01*
X61373807Y-68912296D01*
X61396329Y-68920354D01*
X61417953Y-68930582D01*
X61438470Y-68942879D01*
X61457683Y-68957129D01*
X61475407Y-68973193D01*
X61491471Y-68990917D01*
X61505721Y-69010130D01*
X61518018Y-69030647D01*
X61528246Y-69052271D01*
X61536304Y-69074793D01*
X61542116Y-69097997D01*
X61545626Y-69121658D01*
X61546800Y-69145550D01*
X61546800Y-70058050D01*
X61545626Y-70081942D01*
X61542116Y-70105603D01*
X61536304Y-70128807D01*
X61528246Y-70151329D01*
X61518018Y-70172953D01*
X61505721Y-70193470D01*
X61491471Y-70212683D01*
X61475407Y-70230407D01*
X61457683Y-70246471D01*
X61438470Y-70260721D01*
X61417953Y-70273018D01*
X61396329Y-70283246D01*
X61373807Y-70291304D01*
X61350603Y-70297116D01*
X61326942Y-70300626D01*
X61303050Y-70301800D01*
X60815550Y-70301800D01*
X60791658Y-70300626D01*
X60767997Y-70297116D01*
X60744793Y-70291304D01*
X60722271Y-70283246D01*
X60700647Y-70273018D01*
X60680130Y-70260721D01*
X60660917Y-70246471D01*
X60643193Y-70230407D01*
X60627129Y-70212683D01*
X60612879Y-70193470D01*
X60600582Y-70172953D01*
X60590354Y-70151329D01*
X60582296Y-70128807D01*
X60576484Y-70105603D01*
X60572974Y-70081942D01*
X60571800Y-70058050D01*
X60571800Y-69145550D01*
X60572974Y-69121658D01*
X60576484Y-69097997D01*
X60582296Y-69074793D01*
X60590354Y-69052271D01*
X60600582Y-69030647D01*
X60612879Y-69010130D01*
X60627129Y-68990917D01*
X60643193Y-68973193D01*
X60660917Y-68957129D01*
X60680130Y-68942879D01*
X60700647Y-68930582D01*
X60722271Y-68920354D01*
X60744793Y-68912296D01*
X60767997Y-68906484D01*
X60791658Y-68902974D01*
X60815550Y-68901800D01*
X61303050Y-68901800D01*
X61326942Y-68902974D01*
X61326942Y-68902974D01*
G37*
D11*
X61059300Y-69601800D03*
M02*
