G04 #@! TF.GenerationSoftware,KiCad,Pcbnew,(5.1.4)-1*
G04 #@! TF.CreationDate,2019-09-19T01:50:37+03:00*
G04 #@! TF.ProjectId,Project_2_RPI_HAT,50726f6a-6563-4745-9f32-5f5250495f48,v1*
G04 #@! TF.SameCoordinates,Original*
G04 #@! TF.FileFunction,Soldermask,Bot*
G04 #@! TF.FilePolarity,Negative*
%FSLAX46Y46*%
G04 Gerber Fmt 4.6, Leading zero omitted, Abs format (unit mm)*
G04 Created by KiCad (PCBNEW (5.1.4)-1) date 2019-09-19 01:50:37*
%MOMM*%
%LPD*%
G04 APERTURE LIST*
%ADD10C,0.100000*%
G04 APERTURE END LIST*
D10*
G36*
X52251347Y-79454921D02*
G01*
X52330976Y-79462764D01*
X52484227Y-79509252D01*
X52484230Y-79509253D01*
X52625463Y-79584744D01*
X52749259Y-79686341D01*
X52850856Y-79810137D01*
X52926347Y-79951370D01*
X52926348Y-79951373D01*
X52972836Y-80104624D01*
X52988533Y-80264000D01*
X52972836Y-80423376D01*
X52926348Y-80576627D01*
X52926347Y-80576630D01*
X52850856Y-80717863D01*
X52749259Y-80841659D01*
X52625463Y-80943256D01*
X52484230Y-81018747D01*
X52484227Y-81018748D01*
X52330976Y-81065236D01*
X52251347Y-81073079D01*
X52211534Y-81077000D01*
X52131666Y-81077000D01*
X52091853Y-81073079D01*
X52012224Y-81065236D01*
X51858973Y-81018748D01*
X51858970Y-81018747D01*
X51717737Y-80943256D01*
X51593941Y-80841659D01*
X51492344Y-80717863D01*
X51416853Y-80576630D01*
X51416852Y-80576627D01*
X51370364Y-80423376D01*
X51354667Y-80264000D01*
X51370364Y-80104624D01*
X51416852Y-79951373D01*
X51416853Y-79951370D01*
X51492344Y-79810137D01*
X51593941Y-79686341D01*
X51717737Y-79584744D01*
X51858970Y-79509253D01*
X51858973Y-79509252D01*
X52012224Y-79462764D01*
X52091853Y-79454921D01*
X52131666Y-79451000D01*
X52211534Y-79451000D01*
X52251347Y-79454921D01*
X52251347Y-79454921D01*
G37*
G36*
X45748947Y-79454921D02*
G01*
X45828576Y-79462764D01*
X45981827Y-79509252D01*
X45981830Y-79509253D01*
X46123063Y-79584744D01*
X46246859Y-79686341D01*
X46348456Y-79810137D01*
X46423947Y-79951370D01*
X46423948Y-79951373D01*
X46470436Y-80104624D01*
X46486133Y-80264000D01*
X46470436Y-80423376D01*
X46423948Y-80576627D01*
X46423947Y-80576630D01*
X46348456Y-80717863D01*
X46246859Y-80841659D01*
X46123063Y-80943256D01*
X45981830Y-81018747D01*
X45981827Y-81018748D01*
X45828576Y-81065236D01*
X45748947Y-81073079D01*
X45709134Y-81077000D01*
X45629266Y-81077000D01*
X45589453Y-81073079D01*
X45509824Y-81065236D01*
X45356573Y-81018748D01*
X45356570Y-81018747D01*
X45215337Y-80943256D01*
X45091541Y-80841659D01*
X44989944Y-80717863D01*
X44914453Y-80576630D01*
X44914452Y-80576627D01*
X44867964Y-80423376D01*
X44852267Y-80264000D01*
X44867964Y-80104624D01*
X44914452Y-79951373D01*
X44914453Y-79951370D01*
X44989944Y-79810137D01*
X45091541Y-79686341D01*
X45215337Y-79584744D01*
X45356570Y-79509253D01*
X45356573Y-79509252D01*
X45509824Y-79462764D01*
X45589453Y-79454921D01*
X45629266Y-79451000D01*
X45709134Y-79451000D01*
X45748947Y-79454921D01*
X45748947Y-79454921D01*
G37*
G36*
X56113642Y-77715781D02*
G01*
X56259414Y-77776162D01*
X56259416Y-77776163D01*
X56390608Y-77863822D01*
X56502178Y-77975392D01*
X56589837Y-78106584D01*
X56589838Y-78106586D01*
X56650219Y-78252358D01*
X56681000Y-78407107D01*
X56681000Y-78564893D01*
X56650219Y-78719642D01*
X56589838Y-78865414D01*
X56589837Y-78865416D01*
X56502178Y-78996608D01*
X56390608Y-79108178D01*
X56259416Y-79195837D01*
X56259415Y-79195838D01*
X56259414Y-79195838D01*
X56113642Y-79256219D01*
X55958893Y-79287000D01*
X55801107Y-79287000D01*
X55646358Y-79256219D01*
X55500586Y-79195838D01*
X55500585Y-79195838D01*
X55500584Y-79195837D01*
X55369392Y-79108178D01*
X55257822Y-78996608D01*
X55170163Y-78865416D01*
X55170162Y-78865414D01*
X55109781Y-78719642D01*
X55079000Y-78564893D01*
X55079000Y-78407107D01*
X55109781Y-78252358D01*
X55170162Y-78106586D01*
X55170163Y-78106584D01*
X55257822Y-77975392D01*
X55369392Y-77863822D01*
X55500584Y-77776163D01*
X55500586Y-77776162D01*
X55646358Y-77715781D01*
X55801107Y-77685000D01*
X55958893Y-77685000D01*
X56113642Y-77715781D01*
X56113642Y-77715781D01*
G37*
G36*
X58653642Y-77715781D02*
G01*
X58799414Y-77776162D01*
X58799416Y-77776163D01*
X58930608Y-77863822D01*
X59042178Y-77975392D01*
X59129837Y-78106584D01*
X59129838Y-78106586D01*
X59190219Y-78252358D01*
X59221000Y-78407107D01*
X59221000Y-78564893D01*
X59190219Y-78719642D01*
X59129838Y-78865414D01*
X59129837Y-78865416D01*
X59042178Y-78996608D01*
X58930608Y-79108178D01*
X58799416Y-79195837D01*
X58799415Y-79195838D01*
X58799414Y-79195838D01*
X58653642Y-79256219D01*
X58498893Y-79287000D01*
X58341107Y-79287000D01*
X58186358Y-79256219D01*
X58040586Y-79195838D01*
X58040585Y-79195838D01*
X58040584Y-79195837D01*
X57909392Y-79108178D01*
X57797822Y-78996608D01*
X57710163Y-78865416D01*
X57710162Y-78865414D01*
X57649781Y-78719642D01*
X57619000Y-78564893D01*
X57619000Y-78407107D01*
X57649781Y-78252358D01*
X57710162Y-78106586D01*
X57710163Y-78106584D01*
X57797822Y-77975392D01*
X57909392Y-77863822D01*
X58040584Y-77776163D01*
X58040586Y-77776162D01*
X58186358Y-77715781D01*
X58341107Y-77685000D01*
X58498893Y-77685000D01*
X58653642Y-77715781D01*
X58653642Y-77715781D01*
G37*
G36*
X61193642Y-77715781D02*
G01*
X61339414Y-77776162D01*
X61339416Y-77776163D01*
X61470608Y-77863822D01*
X61582178Y-77975392D01*
X61669837Y-78106584D01*
X61669838Y-78106586D01*
X61730219Y-78252358D01*
X61761000Y-78407107D01*
X61761000Y-78564893D01*
X61730219Y-78719642D01*
X61669838Y-78865414D01*
X61669837Y-78865416D01*
X61582178Y-78996608D01*
X61470608Y-79108178D01*
X61339416Y-79195837D01*
X61339415Y-79195838D01*
X61339414Y-79195838D01*
X61193642Y-79256219D01*
X61038893Y-79287000D01*
X60881107Y-79287000D01*
X60726358Y-79256219D01*
X60580586Y-79195838D01*
X60580585Y-79195838D01*
X60580584Y-79195837D01*
X60449392Y-79108178D01*
X60337822Y-78996608D01*
X60250163Y-78865416D01*
X60250162Y-78865414D01*
X60189781Y-78719642D01*
X60159000Y-78564893D01*
X60159000Y-78407107D01*
X60189781Y-78252358D01*
X60250162Y-78106586D01*
X60250163Y-78106584D01*
X60337822Y-77975392D01*
X60449392Y-77863822D01*
X60580584Y-77776163D01*
X60580586Y-77776162D01*
X60726358Y-77715781D01*
X60881107Y-77685000D01*
X61038893Y-77685000D01*
X61193642Y-77715781D01*
X61193642Y-77715781D01*
G37*
G36*
X64301000Y-79287000D02*
G01*
X62699000Y-79287000D01*
X62699000Y-77685000D01*
X64301000Y-77685000D01*
X64301000Y-79287000D01*
X64301000Y-79287000D01*
G37*
G36*
X45748947Y-74933721D02*
G01*
X45828576Y-74941564D01*
X45981827Y-74988052D01*
X45981830Y-74988053D01*
X46123063Y-75063544D01*
X46246859Y-75165141D01*
X46348456Y-75288937D01*
X46423947Y-75430170D01*
X46423948Y-75430173D01*
X46470436Y-75583424D01*
X46486133Y-75742800D01*
X46470436Y-75902176D01*
X46423948Y-76055427D01*
X46423947Y-76055430D01*
X46348456Y-76196663D01*
X46246859Y-76320459D01*
X46123063Y-76422056D01*
X45981830Y-76497547D01*
X45981827Y-76497548D01*
X45828576Y-76544036D01*
X45748947Y-76551879D01*
X45709134Y-76555800D01*
X45629266Y-76555800D01*
X45589453Y-76551879D01*
X45509824Y-76544036D01*
X45356573Y-76497548D01*
X45356570Y-76497547D01*
X45215337Y-76422056D01*
X45091541Y-76320459D01*
X44989944Y-76196663D01*
X44914453Y-76055430D01*
X44914452Y-76055427D01*
X44867964Y-75902176D01*
X44852267Y-75742800D01*
X44867964Y-75583424D01*
X44914452Y-75430173D01*
X44914453Y-75430170D01*
X44989944Y-75288937D01*
X45091541Y-75165141D01*
X45215337Y-75063544D01*
X45356570Y-74988053D01*
X45356573Y-74988052D01*
X45509824Y-74941564D01*
X45589453Y-74933721D01*
X45629266Y-74929800D01*
X45709134Y-74929800D01*
X45748947Y-74933721D01*
X45748947Y-74933721D01*
G37*
G36*
X52251347Y-74933721D02*
G01*
X52330976Y-74941564D01*
X52484227Y-74988052D01*
X52484230Y-74988053D01*
X52625463Y-75063544D01*
X52749259Y-75165141D01*
X52850856Y-75288937D01*
X52926347Y-75430170D01*
X52926348Y-75430173D01*
X52972836Y-75583424D01*
X52988533Y-75742800D01*
X52972836Y-75902176D01*
X52926348Y-76055427D01*
X52926347Y-76055430D01*
X52850856Y-76196663D01*
X52749259Y-76320459D01*
X52625463Y-76422056D01*
X52484230Y-76497547D01*
X52484227Y-76497548D01*
X52330976Y-76544036D01*
X52251347Y-76551879D01*
X52211534Y-76555800D01*
X52131666Y-76555800D01*
X52091853Y-76551879D01*
X52012224Y-76544036D01*
X51858973Y-76497548D01*
X51858970Y-76497547D01*
X51717737Y-76422056D01*
X51593941Y-76320459D01*
X51492344Y-76196663D01*
X51416853Y-76055430D01*
X51416852Y-76055427D01*
X51370364Y-75902176D01*
X51354667Y-75742800D01*
X51370364Y-75583424D01*
X51416852Y-75430173D01*
X51416853Y-75430170D01*
X51492344Y-75288937D01*
X51593941Y-75165141D01*
X51717737Y-75063544D01*
X51858970Y-74988053D01*
X51858973Y-74988052D01*
X52012224Y-74941564D01*
X52091853Y-74933721D01*
X52131666Y-74929800D01*
X52211534Y-74929800D01*
X52251347Y-74933721D01*
X52251347Y-74933721D01*
G37*
G36*
X53704443Y-65526519D02*
G01*
X53770627Y-65533037D01*
X53940466Y-65584557D01*
X54096991Y-65668222D01*
X54132729Y-65697552D01*
X54234186Y-65780814D01*
X54317448Y-65882271D01*
X54346778Y-65918009D01*
X54430443Y-66074534D01*
X54481963Y-66244373D01*
X54499359Y-66421000D01*
X54481963Y-66597627D01*
X54430443Y-66767466D01*
X54346778Y-66923991D01*
X54317448Y-66959729D01*
X54234186Y-67061186D01*
X54132729Y-67144448D01*
X54096991Y-67173778D01*
X53940466Y-67257443D01*
X53770627Y-67308963D01*
X53704442Y-67315482D01*
X53638260Y-67322000D01*
X53549740Y-67322000D01*
X53483558Y-67315482D01*
X53417373Y-67308963D01*
X53247534Y-67257443D01*
X53091009Y-67173778D01*
X53055271Y-67144448D01*
X52953814Y-67061186D01*
X52870552Y-66959729D01*
X52841222Y-66923991D01*
X52757557Y-66767466D01*
X52706037Y-66597627D01*
X52688641Y-66421000D01*
X52706037Y-66244373D01*
X52757557Y-66074534D01*
X52841222Y-65918009D01*
X52870552Y-65882271D01*
X52953814Y-65780814D01*
X53055271Y-65697552D01*
X53091009Y-65668222D01*
X53247534Y-65584557D01*
X53417373Y-65533037D01*
X53483557Y-65526519D01*
X53549740Y-65520000D01*
X53638260Y-65520000D01*
X53704443Y-65526519D01*
X53704443Y-65526519D01*
G37*
G36*
X63864443Y-65526519D02*
G01*
X63930627Y-65533037D01*
X64100466Y-65584557D01*
X64256991Y-65668222D01*
X64292729Y-65697552D01*
X64394186Y-65780814D01*
X64477448Y-65882271D01*
X64506778Y-65918009D01*
X64590443Y-66074534D01*
X64641963Y-66244373D01*
X64659359Y-66421000D01*
X64641963Y-66597627D01*
X64590443Y-66767466D01*
X64506778Y-66923991D01*
X64477448Y-66959729D01*
X64394186Y-67061186D01*
X64292729Y-67144448D01*
X64256991Y-67173778D01*
X64100466Y-67257443D01*
X63930627Y-67308963D01*
X63864442Y-67315482D01*
X63798260Y-67322000D01*
X63709740Y-67322000D01*
X63643558Y-67315482D01*
X63577373Y-67308963D01*
X63407534Y-67257443D01*
X63251009Y-67173778D01*
X63215271Y-67144448D01*
X63113814Y-67061186D01*
X63030552Y-66959729D01*
X63001222Y-66923991D01*
X62917557Y-66767466D01*
X62866037Y-66597627D01*
X62848641Y-66421000D01*
X62866037Y-66244373D01*
X62917557Y-66074534D01*
X63001222Y-65918009D01*
X63030552Y-65882271D01*
X63113814Y-65780814D01*
X63215271Y-65697552D01*
X63251009Y-65668222D01*
X63407534Y-65584557D01*
X63577373Y-65533037D01*
X63643557Y-65526519D01*
X63709740Y-65520000D01*
X63798260Y-65520000D01*
X63864443Y-65526519D01*
X63864443Y-65526519D01*
G37*
G36*
X58784443Y-65526519D02*
G01*
X58850627Y-65533037D01*
X59020466Y-65584557D01*
X59176991Y-65668222D01*
X59212729Y-65697552D01*
X59314186Y-65780814D01*
X59397448Y-65882271D01*
X59426778Y-65918009D01*
X59510443Y-66074534D01*
X59561963Y-66244373D01*
X59579359Y-66421000D01*
X59561963Y-66597627D01*
X59510443Y-66767466D01*
X59426778Y-66923991D01*
X59397448Y-66959729D01*
X59314186Y-67061186D01*
X59212729Y-67144448D01*
X59176991Y-67173778D01*
X59020466Y-67257443D01*
X58850627Y-67308963D01*
X58784442Y-67315482D01*
X58718260Y-67322000D01*
X58629740Y-67322000D01*
X58563558Y-67315482D01*
X58497373Y-67308963D01*
X58327534Y-67257443D01*
X58171009Y-67173778D01*
X58135271Y-67144448D01*
X58033814Y-67061186D01*
X57950552Y-66959729D01*
X57921222Y-66923991D01*
X57837557Y-66767466D01*
X57786037Y-66597627D01*
X57768641Y-66421000D01*
X57786037Y-66244373D01*
X57837557Y-66074534D01*
X57921222Y-65918009D01*
X57950552Y-65882271D01*
X58033814Y-65780814D01*
X58135271Y-65697552D01*
X58171009Y-65668222D01*
X58327534Y-65584557D01*
X58497373Y-65533037D01*
X58563557Y-65526519D01*
X58629740Y-65520000D01*
X58718260Y-65520000D01*
X58784443Y-65526519D01*
X58784443Y-65526519D01*
G37*
G36*
X56244443Y-65526519D02*
G01*
X56310627Y-65533037D01*
X56480466Y-65584557D01*
X56636991Y-65668222D01*
X56672729Y-65697552D01*
X56774186Y-65780814D01*
X56857448Y-65882271D01*
X56886778Y-65918009D01*
X56970443Y-66074534D01*
X57021963Y-66244373D01*
X57039359Y-66421000D01*
X57021963Y-66597627D01*
X56970443Y-66767466D01*
X56886778Y-66923991D01*
X56857448Y-66959729D01*
X56774186Y-67061186D01*
X56672729Y-67144448D01*
X56636991Y-67173778D01*
X56480466Y-67257443D01*
X56310627Y-67308963D01*
X56244442Y-67315482D01*
X56178260Y-67322000D01*
X56089740Y-67322000D01*
X56023558Y-67315482D01*
X55957373Y-67308963D01*
X55787534Y-67257443D01*
X55631009Y-67173778D01*
X55595271Y-67144448D01*
X55493814Y-67061186D01*
X55410552Y-66959729D01*
X55381222Y-66923991D01*
X55297557Y-66767466D01*
X55246037Y-66597627D01*
X55228641Y-66421000D01*
X55246037Y-66244373D01*
X55297557Y-66074534D01*
X55381222Y-65918009D01*
X55410552Y-65882271D01*
X55493814Y-65780814D01*
X55595271Y-65697552D01*
X55631009Y-65668222D01*
X55787534Y-65584557D01*
X55957373Y-65533037D01*
X56023557Y-65526519D01*
X56089740Y-65520000D01*
X56178260Y-65520000D01*
X56244443Y-65526519D01*
X56244443Y-65526519D01*
G37*
G36*
X51164443Y-65526519D02*
G01*
X51230627Y-65533037D01*
X51400466Y-65584557D01*
X51556991Y-65668222D01*
X51592729Y-65697552D01*
X51694186Y-65780814D01*
X51777448Y-65882271D01*
X51806778Y-65918009D01*
X51890443Y-66074534D01*
X51941963Y-66244373D01*
X51959359Y-66421000D01*
X51941963Y-66597627D01*
X51890443Y-66767466D01*
X51806778Y-66923991D01*
X51777448Y-66959729D01*
X51694186Y-67061186D01*
X51592729Y-67144448D01*
X51556991Y-67173778D01*
X51400466Y-67257443D01*
X51230627Y-67308963D01*
X51164442Y-67315482D01*
X51098260Y-67322000D01*
X51009740Y-67322000D01*
X50943558Y-67315482D01*
X50877373Y-67308963D01*
X50707534Y-67257443D01*
X50551009Y-67173778D01*
X50515271Y-67144448D01*
X50413814Y-67061186D01*
X50330552Y-66959729D01*
X50301222Y-66923991D01*
X50217557Y-66767466D01*
X50166037Y-66597627D01*
X50148641Y-66421000D01*
X50166037Y-66244373D01*
X50217557Y-66074534D01*
X50301222Y-65918009D01*
X50330552Y-65882271D01*
X50413814Y-65780814D01*
X50515271Y-65697552D01*
X50551009Y-65668222D01*
X50707534Y-65584557D01*
X50877373Y-65533037D01*
X50943557Y-65526519D01*
X51009740Y-65520000D01*
X51098260Y-65520000D01*
X51164443Y-65526519D01*
X51164443Y-65526519D01*
G37*
G36*
X48624443Y-65526519D02*
G01*
X48690627Y-65533037D01*
X48860466Y-65584557D01*
X49016991Y-65668222D01*
X49052729Y-65697552D01*
X49154186Y-65780814D01*
X49237448Y-65882271D01*
X49266778Y-65918009D01*
X49350443Y-66074534D01*
X49401963Y-66244373D01*
X49419359Y-66421000D01*
X49401963Y-66597627D01*
X49350443Y-66767466D01*
X49266778Y-66923991D01*
X49237448Y-66959729D01*
X49154186Y-67061186D01*
X49052729Y-67144448D01*
X49016991Y-67173778D01*
X48860466Y-67257443D01*
X48690627Y-67308963D01*
X48624442Y-67315482D01*
X48558260Y-67322000D01*
X48469740Y-67322000D01*
X48403558Y-67315482D01*
X48337373Y-67308963D01*
X48167534Y-67257443D01*
X48011009Y-67173778D01*
X47975271Y-67144448D01*
X47873814Y-67061186D01*
X47790552Y-66959729D01*
X47761222Y-66923991D01*
X47677557Y-66767466D01*
X47626037Y-66597627D01*
X47608641Y-66421000D01*
X47626037Y-66244373D01*
X47677557Y-66074534D01*
X47761222Y-65918009D01*
X47790552Y-65882271D01*
X47873814Y-65780814D01*
X47975271Y-65697552D01*
X48011009Y-65668222D01*
X48167534Y-65584557D01*
X48337373Y-65533037D01*
X48403557Y-65526519D01*
X48469740Y-65520000D01*
X48558260Y-65520000D01*
X48624443Y-65526519D01*
X48624443Y-65526519D01*
G37*
G36*
X46875000Y-67322000D02*
G01*
X45073000Y-67322000D01*
X45073000Y-65520000D01*
X46875000Y-65520000D01*
X46875000Y-67322000D01*
X46875000Y-67322000D01*
G37*
G36*
X61324443Y-65526519D02*
G01*
X61390627Y-65533037D01*
X61560466Y-65584557D01*
X61716991Y-65668222D01*
X61752729Y-65697552D01*
X61854186Y-65780814D01*
X61937448Y-65882271D01*
X61966778Y-65918009D01*
X62050443Y-66074534D01*
X62101963Y-66244373D01*
X62119359Y-66421000D01*
X62101963Y-66597627D01*
X62050443Y-66767466D01*
X61966778Y-66923991D01*
X61937448Y-66959729D01*
X61854186Y-67061186D01*
X61752729Y-67144448D01*
X61716991Y-67173778D01*
X61560466Y-67257443D01*
X61390627Y-67308963D01*
X61324442Y-67315482D01*
X61258260Y-67322000D01*
X61169740Y-67322000D01*
X61103558Y-67315482D01*
X61037373Y-67308963D01*
X60867534Y-67257443D01*
X60711009Y-67173778D01*
X60675271Y-67144448D01*
X60573814Y-67061186D01*
X60490552Y-66959729D01*
X60461222Y-66923991D01*
X60377557Y-66767466D01*
X60326037Y-66597627D01*
X60308641Y-66421000D01*
X60326037Y-66244373D01*
X60377557Y-66074534D01*
X60461222Y-65918009D01*
X60490552Y-65882271D01*
X60573814Y-65780814D01*
X60675271Y-65697552D01*
X60711009Y-65668222D01*
X60867534Y-65584557D01*
X61037373Y-65533037D01*
X61103557Y-65526519D01*
X61169740Y-65520000D01*
X61258260Y-65520000D01*
X61324443Y-65526519D01*
X61324443Y-65526519D01*
G37*
G36*
X48624443Y-62986519D02*
G01*
X48690627Y-62993037D01*
X48860466Y-63044557D01*
X49016991Y-63128222D01*
X49052729Y-63157552D01*
X49154186Y-63240814D01*
X49237448Y-63342271D01*
X49266778Y-63378009D01*
X49350443Y-63534534D01*
X49401963Y-63704373D01*
X49419359Y-63881000D01*
X49401963Y-64057627D01*
X49350443Y-64227466D01*
X49266778Y-64383991D01*
X49237448Y-64419729D01*
X49154186Y-64521186D01*
X49052729Y-64604448D01*
X49016991Y-64633778D01*
X48860466Y-64717443D01*
X48690627Y-64768963D01*
X48624443Y-64775481D01*
X48558260Y-64782000D01*
X48469740Y-64782000D01*
X48403557Y-64775481D01*
X48337373Y-64768963D01*
X48167534Y-64717443D01*
X48011009Y-64633778D01*
X47975271Y-64604448D01*
X47873814Y-64521186D01*
X47790552Y-64419729D01*
X47761222Y-64383991D01*
X47677557Y-64227466D01*
X47626037Y-64057627D01*
X47608641Y-63881000D01*
X47626037Y-63704373D01*
X47677557Y-63534534D01*
X47761222Y-63378009D01*
X47790552Y-63342271D01*
X47873814Y-63240814D01*
X47975271Y-63157552D01*
X48011009Y-63128222D01*
X48167534Y-63044557D01*
X48337373Y-62993037D01*
X48403557Y-62986519D01*
X48469740Y-62980000D01*
X48558260Y-62980000D01*
X48624443Y-62986519D01*
X48624443Y-62986519D01*
G37*
G36*
X63864443Y-62986519D02*
G01*
X63930627Y-62993037D01*
X64100466Y-63044557D01*
X64256991Y-63128222D01*
X64292729Y-63157552D01*
X64394186Y-63240814D01*
X64477448Y-63342271D01*
X64506778Y-63378009D01*
X64590443Y-63534534D01*
X64641963Y-63704373D01*
X64659359Y-63881000D01*
X64641963Y-64057627D01*
X64590443Y-64227466D01*
X64506778Y-64383991D01*
X64477448Y-64419729D01*
X64394186Y-64521186D01*
X64292729Y-64604448D01*
X64256991Y-64633778D01*
X64100466Y-64717443D01*
X63930627Y-64768963D01*
X63864443Y-64775481D01*
X63798260Y-64782000D01*
X63709740Y-64782000D01*
X63643557Y-64775481D01*
X63577373Y-64768963D01*
X63407534Y-64717443D01*
X63251009Y-64633778D01*
X63215271Y-64604448D01*
X63113814Y-64521186D01*
X63030552Y-64419729D01*
X63001222Y-64383991D01*
X62917557Y-64227466D01*
X62866037Y-64057627D01*
X62848641Y-63881000D01*
X62866037Y-63704373D01*
X62917557Y-63534534D01*
X63001222Y-63378009D01*
X63030552Y-63342271D01*
X63113814Y-63240814D01*
X63215271Y-63157552D01*
X63251009Y-63128222D01*
X63407534Y-63044557D01*
X63577373Y-62993037D01*
X63643557Y-62986519D01*
X63709740Y-62980000D01*
X63798260Y-62980000D01*
X63864443Y-62986519D01*
X63864443Y-62986519D01*
G37*
G36*
X61324443Y-62986519D02*
G01*
X61390627Y-62993037D01*
X61560466Y-63044557D01*
X61716991Y-63128222D01*
X61752729Y-63157552D01*
X61854186Y-63240814D01*
X61937448Y-63342271D01*
X61966778Y-63378009D01*
X62050443Y-63534534D01*
X62101963Y-63704373D01*
X62119359Y-63881000D01*
X62101963Y-64057627D01*
X62050443Y-64227466D01*
X61966778Y-64383991D01*
X61937448Y-64419729D01*
X61854186Y-64521186D01*
X61752729Y-64604448D01*
X61716991Y-64633778D01*
X61560466Y-64717443D01*
X61390627Y-64768963D01*
X61324443Y-64775481D01*
X61258260Y-64782000D01*
X61169740Y-64782000D01*
X61103557Y-64775481D01*
X61037373Y-64768963D01*
X60867534Y-64717443D01*
X60711009Y-64633778D01*
X60675271Y-64604448D01*
X60573814Y-64521186D01*
X60490552Y-64419729D01*
X60461222Y-64383991D01*
X60377557Y-64227466D01*
X60326037Y-64057627D01*
X60308641Y-63881000D01*
X60326037Y-63704373D01*
X60377557Y-63534534D01*
X60461222Y-63378009D01*
X60490552Y-63342271D01*
X60573814Y-63240814D01*
X60675271Y-63157552D01*
X60711009Y-63128222D01*
X60867534Y-63044557D01*
X61037373Y-62993037D01*
X61103557Y-62986519D01*
X61169740Y-62980000D01*
X61258260Y-62980000D01*
X61324443Y-62986519D01*
X61324443Y-62986519D01*
G37*
G36*
X46084443Y-62986519D02*
G01*
X46150627Y-62993037D01*
X46320466Y-63044557D01*
X46476991Y-63128222D01*
X46512729Y-63157552D01*
X46614186Y-63240814D01*
X46697448Y-63342271D01*
X46726778Y-63378009D01*
X46810443Y-63534534D01*
X46861963Y-63704373D01*
X46879359Y-63881000D01*
X46861963Y-64057627D01*
X46810443Y-64227466D01*
X46726778Y-64383991D01*
X46697448Y-64419729D01*
X46614186Y-64521186D01*
X46512729Y-64604448D01*
X46476991Y-64633778D01*
X46320466Y-64717443D01*
X46150627Y-64768963D01*
X46084443Y-64775481D01*
X46018260Y-64782000D01*
X45929740Y-64782000D01*
X45863557Y-64775481D01*
X45797373Y-64768963D01*
X45627534Y-64717443D01*
X45471009Y-64633778D01*
X45435271Y-64604448D01*
X45333814Y-64521186D01*
X45250552Y-64419729D01*
X45221222Y-64383991D01*
X45137557Y-64227466D01*
X45086037Y-64057627D01*
X45068641Y-63881000D01*
X45086037Y-63704373D01*
X45137557Y-63534534D01*
X45221222Y-63378009D01*
X45250552Y-63342271D01*
X45333814Y-63240814D01*
X45435271Y-63157552D01*
X45471009Y-63128222D01*
X45627534Y-63044557D01*
X45797373Y-62993037D01*
X45863557Y-62986519D01*
X45929740Y-62980000D01*
X46018260Y-62980000D01*
X46084443Y-62986519D01*
X46084443Y-62986519D01*
G37*
G36*
X58784443Y-62986519D02*
G01*
X58850627Y-62993037D01*
X59020466Y-63044557D01*
X59176991Y-63128222D01*
X59212729Y-63157552D01*
X59314186Y-63240814D01*
X59397448Y-63342271D01*
X59426778Y-63378009D01*
X59510443Y-63534534D01*
X59561963Y-63704373D01*
X59579359Y-63881000D01*
X59561963Y-64057627D01*
X59510443Y-64227466D01*
X59426778Y-64383991D01*
X59397448Y-64419729D01*
X59314186Y-64521186D01*
X59212729Y-64604448D01*
X59176991Y-64633778D01*
X59020466Y-64717443D01*
X58850627Y-64768963D01*
X58784443Y-64775481D01*
X58718260Y-64782000D01*
X58629740Y-64782000D01*
X58563557Y-64775481D01*
X58497373Y-64768963D01*
X58327534Y-64717443D01*
X58171009Y-64633778D01*
X58135271Y-64604448D01*
X58033814Y-64521186D01*
X57950552Y-64419729D01*
X57921222Y-64383991D01*
X57837557Y-64227466D01*
X57786037Y-64057627D01*
X57768641Y-63881000D01*
X57786037Y-63704373D01*
X57837557Y-63534534D01*
X57921222Y-63378009D01*
X57950552Y-63342271D01*
X58033814Y-63240814D01*
X58135271Y-63157552D01*
X58171009Y-63128222D01*
X58327534Y-63044557D01*
X58497373Y-62993037D01*
X58563557Y-62986519D01*
X58629740Y-62980000D01*
X58718260Y-62980000D01*
X58784443Y-62986519D01*
X58784443Y-62986519D01*
G37*
G36*
X56244443Y-62986519D02*
G01*
X56310627Y-62993037D01*
X56480466Y-63044557D01*
X56636991Y-63128222D01*
X56672729Y-63157552D01*
X56774186Y-63240814D01*
X56857448Y-63342271D01*
X56886778Y-63378009D01*
X56970443Y-63534534D01*
X57021963Y-63704373D01*
X57039359Y-63881000D01*
X57021963Y-64057627D01*
X56970443Y-64227466D01*
X56886778Y-64383991D01*
X56857448Y-64419729D01*
X56774186Y-64521186D01*
X56672729Y-64604448D01*
X56636991Y-64633778D01*
X56480466Y-64717443D01*
X56310627Y-64768963D01*
X56244443Y-64775481D01*
X56178260Y-64782000D01*
X56089740Y-64782000D01*
X56023557Y-64775481D01*
X55957373Y-64768963D01*
X55787534Y-64717443D01*
X55631009Y-64633778D01*
X55595271Y-64604448D01*
X55493814Y-64521186D01*
X55410552Y-64419729D01*
X55381222Y-64383991D01*
X55297557Y-64227466D01*
X55246037Y-64057627D01*
X55228641Y-63881000D01*
X55246037Y-63704373D01*
X55297557Y-63534534D01*
X55381222Y-63378009D01*
X55410552Y-63342271D01*
X55493814Y-63240814D01*
X55595271Y-63157552D01*
X55631009Y-63128222D01*
X55787534Y-63044557D01*
X55957373Y-62993037D01*
X56023557Y-62986519D01*
X56089740Y-62980000D01*
X56178260Y-62980000D01*
X56244443Y-62986519D01*
X56244443Y-62986519D01*
G37*
G36*
X51164443Y-62986519D02*
G01*
X51230627Y-62993037D01*
X51400466Y-63044557D01*
X51556991Y-63128222D01*
X51592729Y-63157552D01*
X51694186Y-63240814D01*
X51777448Y-63342271D01*
X51806778Y-63378009D01*
X51890443Y-63534534D01*
X51941963Y-63704373D01*
X51959359Y-63881000D01*
X51941963Y-64057627D01*
X51890443Y-64227466D01*
X51806778Y-64383991D01*
X51777448Y-64419729D01*
X51694186Y-64521186D01*
X51592729Y-64604448D01*
X51556991Y-64633778D01*
X51400466Y-64717443D01*
X51230627Y-64768963D01*
X51164443Y-64775481D01*
X51098260Y-64782000D01*
X51009740Y-64782000D01*
X50943557Y-64775481D01*
X50877373Y-64768963D01*
X50707534Y-64717443D01*
X50551009Y-64633778D01*
X50515271Y-64604448D01*
X50413814Y-64521186D01*
X50330552Y-64419729D01*
X50301222Y-64383991D01*
X50217557Y-64227466D01*
X50166037Y-64057627D01*
X50148641Y-63881000D01*
X50166037Y-63704373D01*
X50217557Y-63534534D01*
X50301222Y-63378009D01*
X50330552Y-63342271D01*
X50413814Y-63240814D01*
X50515271Y-63157552D01*
X50551009Y-63128222D01*
X50707534Y-63044557D01*
X50877373Y-62993037D01*
X50943557Y-62986519D01*
X51009740Y-62980000D01*
X51098260Y-62980000D01*
X51164443Y-62986519D01*
X51164443Y-62986519D01*
G37*
G36*
X53704443Y-62986519D02*
G01*
X53770627Y-62993037D01*
X53940466Y-63044557D01*
X54096991Y-63128222D01*
X54132729Y-63157552D01*
X54234186Y-63240814D01*
X54317448Y-63342271D01*
X54346778Y-63378009D01*
X54430443Y-63534534D01*
X54481963Y-63704373D01*
X54499359Y-63881000D01*
X54481963Y-64057627D01*
X54430443Y-64227466D01*
X54346778Y-64383991D01*
X54317448Y-64419729D01*
X54234186Y-64521186D01*
X54132729Y-64604448D01*
X54096991Y-64633778D01*
X53940466Y-64717443D01*
X53770627Y-64768963D01*
X53704443Y-64775481D01*
X53638260Y-64782000D01*
X53549740Y-64782000D01*
X53483557Y-64775481D01*
X53417373Y-64768963D01*
X53247534Y-64717443D01*
X53091009Y-64633778D01*
X53055271Y-64604448D01*
X52953814Y-64521186D01*
X52870552Y-64419729D01*
X52841222Y-64383991D01*
X52757557Y-64227466D01*
X52706037Y-64057627D01*
X52688641Y-63881000D01*
X52706037Y-63704373D01*
X52757557Y-63534534D01*
X52841222Y-63378009D01*
X52870552Y-63342271D01*
X52953814Y-63240814D01*
X53055271Y-63157552D01*
X53091009Y-63128222D01*
X53247534Y-63044557D01*
X53417373Y-62993037D01*
X53483557Y-62986519D01*
X53549740Y-62980000D01*
X53638260Y-62980000D01*
X53704443Y-62986519D01*
X53704443Y-62986519D01*
G37*
M02*
