M48
; DRILL file {KiCad (5.1.4)-1} date 19.09.2019 01:50:41
; FORMAT={-:-/ absolute / inch / decimal}
; #@! TF.CreationDate,2019-09-19T01:50:41+03:00
; #@! TF.GenerationSoftware,Kicad,Pcbnew,(5.1.4)-1
; #@! TF.FileFunction,Plated,1,2,PTH
FMAT,2
INCH
T1C0.0315
T2C0.0394
T3C0.0400
%
G90
G05
T1
X2.2Y-2.804
X2.445Y-2.803
X2.2Y-3.09
X2.3Y-3.09
X2.4Y-3.09
X2.5Y-3.09
T2
X1.81Y-2.515
X1.81Y-2.615
X1.91Y-2.515
X1.91Y-2.615
X2.01Y-2.515
X2.01Y-2.615
X2.11Y-2.515
X2.11Y-2.615
X2.21Y-2.515
X2.21Y-2.615
X2.31Y-2.515
X2.31Y-2.615
X2.41Y-2.515
X2.41Y-2.615
X2.51Y-2.515
X2.51Y-2.615
T3
X1.798Y-2.982
X1.798Y-3.16
X2.054Y-2.982
X2.054Y-3.16
T0
M30
